<?xml version="1.0" standalone="no"?>
<!DOCTYPE svg PUBLIC "-//W3C//DTD SVG 20010904//EN"
 "http://www.w3.org/TR/2001/REC-SVG-20010904/DTD/svg10.dtd">
<svg version="1.0" xmlns="http://www.w3.org/2000/svg"
 width="930.000000pt" height="930.000000pt" viewBox="0 0 930.000000 930.000000"
 preserveAspectRatio="xMidYMid meet">
<metadata>
Created by potrace 1.14, written by Peter Selinger 2001-2017
</metadata>
<g transform="translate(0.000000,930.000000) scale(0.100000,-0.100000)"
fill="#000000" stroke="none">
<path d="M6730 7903 c-25 -5 -983 -303 -1032 -322 -14 -5 -28 -17 -31 -25 -4
-9 -17 -16 -29 -16 -13 0 -30 -4 -37 -9 -8 -5 -22 -6 -30 -1 -11 5 -140 -31
-379 -105 -200 -63 -377 -117 -394 -121 l-32 -6 28 -24 27 -24 -18 -33 c-33
-59 -33 -59 -70 -27 -18 17 -38 30 -44 30 -6 0 -6 7 1 20 9 17 8 20 -13 20
-13 0 -100 -24 -193 -54 -93 -30 -484 -154 -869 -276 -677 -214 -1249 -397
-2055 -655 -389 -125 -693 -221 -785 -249 -126 -38 -311 -107 -334 -124 -38
-28 -93 -146 -102 -217 -16 -125 -27 -161 -86 -260 -33 -55 -65 -115 -71 -134
-19 -53 -15 -179 7 -226 16 -36 257 -460 460 -810 44 -76 88 -143 96 -148 8
-4 15 -17 15 -29 0 -22 87 -182 635 -1168 404 -727 553 -992 566 -1005 5 -5 9
-25 9 -45 0 -63 150 -333 212 -381 57 -45 94 -59 239 -89 169 -36 255 -38 319
-9 25 12 90 32 145 45 89 21 103 27 137 63 38 39 98 68 194 92 30 8 53 21 66
40 20 27 22 27 49 13 43 -22 62 -17 104 26 42 43 65 49 85 25 7 -8 19 -15 27
-15 17 0 162 44 398 120 148 48 560 172 1155 349 776 229 1242 367 1560 461
1066 315 1262 377 1291 410 17 20 23 21 146 23 l82 2 48 48 c27 26 54 47 61
47 7 0 25 -9 40 -20 l28 -21 173 56 c232 74 272 94 320 158 21 29 48 70 59 92
11 22 36 64 55 92 55 81 77 151 77 241 0 85 5 71 -116 274 -34 57 -109 188
-167 291 l-105 188 5 58 c5 57 3 63 -44 148 -28 48 -85 156 -128 238 -185 355
-619 1169 -837 1569 -94 172 -118 224 -113 245 4 20 -8 49 -48 121 l-54 95 22
35 c12 19 25 44 29 55 6 20 -37 105 -156 309 l-40 69 -61 -6 c-57 -5 -61 -4
-89 26 -18 20 -27 39 -23 50 3 9 7 25 10 35 6 19 -130 259 -173 304 -41 44
-161 82 -222 71z m135 -65 c22 -5 45 -14 52 -20 6 -5 45 -66 87 -136 66 -111
75 -132 70 -162 -5 -32 9 -61 163 -315 93 -154 186 -310 206 -346 l36 -66
-202 -62 c-111 -33 -207 -61 -214 -61 -6 0 -28 33 -48 73 -80 154 -115 205
-185 262 -89 75 -128 96 -295 163 -131 53 -145 56 -225 56 -119 0 -132 -2
-440 -88 -341 -95 -740 -233 -740 -257 0 -5 -80 -34 -177 -64 -98 -31 -266
-85 -373 -120 -107 -35 -265 -85 -350 -110 -409 -123 -1545 -487 -1583 -507
-10 -5 -15 -13 -12 -18 3 -4 40 3 83 16 121 38 138 37 23 -1 -76 -25 -108 -32
-121 -25 -23 12 -40 13 -21 1 11 -7 7 -13 -17 -25 -34 -17 -58 -22 -29 -5 9 5
17 16 17 24 0 8 8 19 18 24 33 20 -60 0 -194 -40 -73 -21 -138 -39 -145 -39
-8 0 -131 -40 -274 -89 -143 -49 -319 -108 -391 -130 -123 -38 -134 -44 -187
-94 -57 -55 -80 -97 -152 -275 -19 -45 -32 -89 -28 -97 3 -9 0 -22 -7 -30 -8
-10 -11 -51 -8 -137 l4 -123 69 -130 c39 -71 71 -133 73 -136 1 -4 -12 -9 -30
-13 -18 -3 -115 -32 -215 -63 -101 -31 -185 -55 -187 -52 -21 24 -390 706
-486 898 l-62 124 11 60 c10 57 40 120 78 164 18 20 378 147 392 138 4 -2 32
-52 62 -111 58 -114 85 -140 116 -112 10 9 72 32 138 53 66 20 343 108 615
195 272 87 851 271 1285 410 435 138 864 275 955 305 91 30 194 63 230 73 64
20 636 201 1615 512 306 97 509 157 522 154 14 -4 27 1 39 14 9 11 24 18 33
15 10 -3 12 -1 6 4 -5 4 -35 58 -67 119 l-56 111 176 56 c160 50 183 55 242
51 36 -3 83 -10 105 -16z m-642 -198 c13 -12 -23 -41 -47 -38 -24 3 -34 37
-14 49 13 9 46 3 61 -11z m-500 -121 c-12 -23 -18 -28 -24 -18 -18 29 -10 41
33 48 3 0 -1 -13 -9 -30z m1714 -463 c7 -33 -9 -29 -28 6 -9 16 -8 19 3 13 7
-4 4 2 -8 12 -11 10 -40 52 -64 93 -24 41 -60 103 -81 137 -37 60 -38 62 -16
65 19 3 33 -17 105 -147 46 -82 86 -163 89 -179z m-1182 115 c-6 -4 -55 -25
-110 -45 -55 -21 -126 -48 -157 -59 -62 -23 -68 -33 -40 -64 13 -16 34 -21
102 -26 125 -9 307 -59 429 -118 56 -28 101 -52 98 -55 -2 -2 -40 14 -83 36
-137 71 -365 130 -501 130 -37 0 -44 4 -63 36 -14 22 -19 39 -13 45 9 9 317
126 338 128 6 1 6 -2 0 -8z m42 3 c-3 -3 -12 -4 -19 -1 -8 3 -5 6 6 6 11 1 17
-2 13 -5z m83 -19 c19 -7 28 -14 20 -14 -8 0 -28 6 -45 14 -39 17 -21 18 25 0z
m115 -40 c17 -8 23 -13 15 -13 -8 0 -33 8 -55 19 -43 20 -10 15 40 -6z m281
-127 c50 -37 97 -98 77 -98 -5 0 -17 16 -27 35 -10 19 -26 37 -35 40 -19 7
-89 65 -78 65 4 0 33 -19 63 -42z m-975 -96 c29 -26 30 -29 13 -36 -10 -4 -15
-4 -11 0 12 12 -24 44 -50 44 -16 0 -27 -9 -35 -26 -11 -23 -9 -28 12 -45 31
-23 38 -23 63 -1 16 13 19 14 15 2 -8 -27 -52 -35 -82 -15 -36 24 -33 73 4 92
34 17 35 17 71 -15z m890 18 c10 -6 19 -15 19 -21 0 -6 -7 -3 -16 5 -19 19
-26 20 -42 4 -7 -7 -12 -8 -12 -2 0 25 20 30 51 14z m-1143 -26 c2 -12 -4 -24
-13 -28 -13 -4 -14 -2 -5 14 12 22 7 26 -45 33 -16 3 -10 4 15 3 38 -1 45 -4
48 -22z m-101 10 c-3 -3 -12 -4 -19 -1 -8 3 -5 6 6 6 11 1 17 -2 13 -5z m-54
-11 c-7 -2 -19 -2 -25 0 -7 3 -2 5 12 5 14 0 19 -2 13 -5z m468 -10 c13 -16
12 -17 -3 -4 -10 7 -18 15 -18 17 0 8 8 3 21 -13z m-524 1 c-3 -3 -12 -4 -19
-1 -8 3 -5 6 6 6 11 1 17 -2 13 -5z m-40 -10 c-3 -3 -12 -4 -19 -1 -8 3 -5 6
6 6 11 1 17 -2 13 -5z m1409 -3 c12 10 13 9 8 -5 -3 -9 -12 -16 -19 -16 -7 0
-19 -2 -27 -3 -7 -2 -9 -2 -5 1 4 2 0 10 -10 18 -16 13 -15 13 11 4 20 -8 32
-7 42 1z m-1449 -7 c-3 -3 -12 -4 -19 -1 -8 3 -5 6 6 6 11 1 17 -2 13 -5z
m-92 -14 c15 -6 11 -7 -17 -7 -23 1 -33 4 -25 9 14 9 16 9 42 -2z m52 4 c-3
-3 -12 -4 -19 -1 -8 3 -5 6 6 6 11 1 17 -2 13 -5z m293 -45 c-99 -87 -141
-132 -180 -189 -22 -33 -45 -60 -50 -60 -20 0 93 142 157 198 36 31 75 67 87
78 11 12 23 19 26 17 3 -3 -15 -22 -40 -44z m337 45 c-3 -3 -12 -4 -19 -1 -8
3 -5 6 6 6 11 1 17 -2 13 -5z m-757 -24 c-8 -5 -19 -10 -25 -10 -5 0 -3 5 5
10 8 5 20 10 25 10 6 0 3 -5 -5 -10z m-100 -34 c-53 -19 -280 -92 -428 -138
-18 -5 -35 -8 -37 -6 -5 4 494 166 515 166 8 1 -14 -10 -50 -22z m202 6 c-28
-4 -39 -27 -22 -47 11 -13 10 -14 -4 -9 -17 7 -19 16 -10 50 4 17 11 20 32 15
26 -5 26 -6 4 -9z m456 -50 c-4 -2 -8 -10 -8 -18 0 -20 -14 -17 -36 7 -18 20
-18 21 6 39 24 18 24 18 35 -3 6 -12 7 -23 3 -25z m-433 -2 c-3 -5 -12 -10
-18 -10 -7 0 -6 4 3 10 19 12 23 12 15 0z m784 -69 c9 -16 5 -19 -42 -24 -97
-10 -166 -44 -239 -117 -43 -43 -61 -57 -50 -38 15 27 134 132 150 134 4 0 20
6 35 12 16 7 35 12 43 12 8 0 14 5 14 10 0 6 -17 8 -42 5 -24 -3 -38 -3 -32 0
7 3 41 10 75 14 35 5 67 9 71 10 4 0 12 -7 17 -18z m-823 -16 c9 -38 -24 -87
-71 -103 -46 -15 -60 -6 -50 37 17 77 106 125 121 66z m979 14 c39 -10 67 -15
93 -18 7 0 11 -5 8 -10 -3 -4 5 -13 19 -19 17 -8 25 -8 27 0 3 8 10 8 24 -1
14 -10 15 -11 2 -7 -10 3 -20 1 -23 -3 -6 -11 30 -21 42 -12 4 3 5 2 1 -3 -4
-5 14 -22 40 -39 69 -43 164 -130 186 -168 18 -33 17 -32 -15 6 -53 63 -88 94
-166 145 -84 55 -198 105 -263 115 -25 3 -53 7 -62 9 -10 1 -21 5 -24 9 -11
11 66 8 111 -4z m-338 -15 c-3 -3 -12 -4 -19 -1 -8 3 -5 6 6 6 11 1 17 -2 13
-5z m-78 -32 c-24 -16 -73 -59 -108 -97 -35 -38 -58 -58 -51 -45 30 56 160
170 194 170 5 0 -10 -13 -35 -28z m-1334 -22 c-27 -10 -57 -18 -65 -18 -8 0 8
8 35 18 28 10 57 18 65 18 8 0 -7 -8 -35 -18z m453 -13 c4 -20 -25 -34 -40
-19 -15 15 -1 44 19 40 10 -2 19 -11 21 -21z m1648 -70 c36 -27 82 -77 116
-124 68 -96 85 -127 92 -178 3 -22 3 -33 0 -25 -42 106 -74 165 -127 231 -47
58 -159 149 -183 149 -6 0 -18 7 -25 16 -22 27 56 -16 127 -69z m-2186 59 c0
-5 -165 -56 -176 -55 -11 1 147 57 164 58 6 1 12 -1 12 -3z m942 -61 c-4 -26
-22 -45 -22 -25 0 12 18 50 24 50 2 0 1 -11 -2 -25z m536 5 c-7 -10 -14 -17
-17 -15 -4 4 18 35 25 35 2 0 -1 -9 -8 -20z m-1683 -10 c-11 -5 -27 -9 -35 -9
-9 0 -8 4 5 9 11 5 27 9 35 9 9 0 8 -4 -5 -9z m-55 -15 c0 -5 -162 -55 -176
-54 -8 1 152 57 169 58 4 1 7 -1 7 -4z m1087 -51 c-3 -3 -12 -4 -19 -1 -8 3
-5 6 6 6 11 1 17 -2 13 -5z m108 -30 c-8 -20 -15 -45 -15 -55 0 -10 -5 -21
-11 -24 -13 -9 -1 64 14 83 5 6 6 12 1 12 -8 0 16 19 24 20 1 0 -5 -16 -13
-36z m-1385 21 c0 -6 -73 -25 -78 -20 -2 2 11 8 29 14 41 11 49 12 49 6z
m1207 -11 c-3 -3 -12 -4 -19 -1 -8 3 -5 6 6 6 11 1 17 -2 13 -5z m-1342 -34
c-11 -5 -27 -9 -35 -9 -9 0 -8 4 5 9 11 5 27 9 35 9 9 0 8 -4 -5 -9z m1242 4
c-3 -3 -12 -4 -19 -1 -8 3 -5 6 6 6 11 1 17 -2 13 -5z m893 2 c0 -2 -9 -6 -20
-9 -11 -3 -18 -1 -14 4 5 9 34 13 34 5z m-2190 -20 c0 -6 -97 -36 -112 -35 -7
1 12 9 42 19 58 20 70 22 70 16z m2105 -16 c-3 -5 -11 -10 -16 -10 -6 0 -7 5
-4 10 3 6 11 10 16 10 6 0 7 -4 4 -10z m-935 -4 c0 -2 -9 -6 -20 -9 -11 -3
-18 -1 -14 4 5 9 34 13 34 5z m-1305 -26 c-3 -5 -16 -10 -28 -9 -21 0 -21 1
-2 9 28 12 37 12 30 0z m2205 6 c0 -2 -8 -10 -17 -17 -16 -13 -17 -12 -4 4 13
16 21 21 21 13z m868 -31 c-3 -3 -9 2 -12 12 -6 14 -5 15 5 6 7 -7 10 -15 7
-18z m-3129 11 c-6 -7 -225 -76 -235 -75 -10 1 216 78 230 79 5 0 7 -2 5 -4z
m1743 -108 c2 -31 0 -54 -3 -52 -11 7 -17 71 -11 115 7 47 9 37 14 -63z m308
68 c0 -14 -4 -28 -10 -31 -6 -4 -10 7 -10 24 0 17 5 31 10 31 6 0 10 -11 10
-24z m791 -13 c13 -16 12 -17 -3 -4 -10 7 -18 15 -18 17 0 8 8 3 21 -13z
m-3091 -28 c0 -6 -73 -25 -78 -20 -2 2 11 8 29 14 41 11 49 12 49 6z m1646
-87 c29 -60 34 -81 30 -115 -5 -39 -3 -43 29 -62 19 -11 43 -37 54 -59 l20
-39 -62 -21 c-34 -12 -208 -67 -387 -122 -179 -56 -444 -141 -590 -189 -335
-112 -537 -173 -557 -169 -17 3 -104 143 -153 243 -52 109 -82 88 282 202 601
189 1063 334 1163 368 55 18 108 34 118 34 13 1 28 -20 53 -71z m-1737 58 c-7
-7 -132 -46 -143 -45 -14 1 114 47 133 48 8 1 12 -1 10 -3z m2892 -32 c180
-54 289 -170 289 -310 l0 -63 -37 -10 c-21 -6 -69 -11 -108 -11 -189 0 -393
117 -466 266 -18 35 -30 66 -28 67 34 26 73 48 109 60 59 21 172 21 241 1z
m-701 -9 c7 -8 21 -15 32 -15 32 0 66 -29 83 -72 15 -40 15 -43 -3 -67 -13
-18 -29 -27 -53 -28 l-34 -2 35 9 c46 11 61 33 49 73 -10 36 -51 77 -77 77
-10 0 -28 7 -40 16 -13 9 -34 14 -47 11 -14 -2 -22 0 -19 4 9 15 61 10 74 -6z
m-1443 -11 c-3 -3 -12 -4 -19 -1 -8 3 -5 6 6 6 11 1 17 -2 13 -5z m2830 -41
c-3 -10 -5 -2 -5 17 0 19 2 27 5 18 2 -10 2 -26 0 -35z m-3792 22 c-16 -8 -37
-14 -45 -14 -8 0 1 7 20 14 46 18 64 17 25 0z m2361 -108 c8 -4 14 -13 14 -19
0 -16 -40 22 -56 54 -22 42 -16 47 7 8 12 -19 28 -39 35 -43z m470 -111 c72
-70 184 -136 267 -157 26 -6 45 -14 43 -17 -8 -8 -96 19 -151 46 -59 29 -160
107 -205 159 -29 33 -81 132 -79 151 0 4 13 -21 29 -55 20 -42 50 -82 96 -127z
m-2366 120 c0 -2 -7 -7 -16 -10 -8 -3 -12 -2 -9 4 6 10 25 14 25 6z m72 -92
c-1 -37 -4 -69 -6 -71 -1 -2 -30 11 -64 27 -67 32 -78 56 -46 96 15 19 16 19
9 -1 -21 -57 -19 -62 28 -80 25 -9 50 -14 56 -11 17 11 26 97 10 108 -12 8
-11 9 1 5 12 -3 14 -19 12 -73z m-45 48 c12 -8 7 -52 -6 -52 -19 1 -32 20 -26
39 7 23 13 25 32 13z m2187 -8 c3 -8 2 -12 -4 -9 -6 3 -10 10 -10 16 0 14 7
11 14 -7z m1067 -1 c13 -16 12 -17 -3 -4 -10 7 -18 15 -18 17 0 8 8 3 21 -13z
m-4181 -15 c-14 -5 -44 -18 -68 -29 -23 -10 -51 -19 -62 -19 -24 0 -24 -2 -4
-43 20 -39 14 -34 -20 16 -22 32 -23 37 -8 37 9 0 51 11 92 24 76 25 115 33
70 14z m3152 -45 c12 -21 43 -63 67 -93 26 -32 33 -45 16 -30 -32 30 -123 160
-111 160 2 0 15 -17 28 -37z m-2708 -4 c31 -11 58 -25 62 -30 3 -6 -8 -3 -25
5 -17 9 -54 23 -83 30 -29 8 -43 15 -31 15 12 1 47 -8 77 -20z m-643 -26 c13
-16 12 -17 -3 -4 -10 7 -18 15 -18 17 0 8 8 3 21 -13z m563 -19 c52 -18 58
-29 8 -15 -24 7 -32 6 -32 -3 0 -8 -7 -20 -17 -27 -15 -13 -15 -12 -2 10 11
18 11 25 2 28 -7 3 -13 9 -13 14 0 12 -2 12 54 -7z m-65 3 c-2 -1 -11 -8 -20
-15 -13 -9 -16 -9 -16 3 0 8 9 15 20 15 11 0 18 -1 16 -3z m636 -17 c-3 -5
-14 -10 -23 -9 -14 0 -13 2 3 9 27 11 27 11 20 0z m-467 -17 c-10 -2 -26 -2
-35 0 -10 3 -2 5 17 5 19 0 27 -2 18 -5z m-744 -24 c49 -38 27 -93 -36 -87
-23 2 -37 11 -48 31 -14 27 -14 29 13 53 34 29 37 29 71 3z m353 7 c3 -3 -40
-5 -96 -5 -55 0 -101 3 -101 7 0 8 189 6 197 -2z m49 -14 c-10 -2 -22 0 -28 6
-6 6 0 7 19 4 21 -5 23 -7 9 -10z m165 0 c-7 -2 -18 1 -23 6 -8 8 -4 9 13 5
13 -4 18 -8 10 -11z m-75 -17 c27 -8 59 -15 71 -15 12 0 23 -3 25 -7 2 -5 36
-23 75 -42 40 -19 71 -36 69 -38 -1 -2 -41 14 -87 36 -46 21 -114 46 -151 56
-38 10 -68 20 -68 21 0 7 16 4 66 -11z m-737 -32 c11 -25 10 -29 -16 -48 -15
-11 -68 -60 -116 -109 -77 -78 -95 -102 -142 -200 -29 -61 -61 -120 -69 -131
-16 -19 50 125 94 207 24 44 25 52 5 44 -18 -7 -19 -2 -2 24 10 17 9 22 -2 29
-8 5 -20 7 -28 4 -15 -6 -18 -39 -3 -46 6 -3 5 -4 -2 -3 -19 4 -21 41 -4 55
22 19 56 -3 56 -36 0 -25 3 -23 56 30 31 31 61 57 65 57 5 0 9 6 9 13 0 8 21
29 48 47 26 18 48 35 50 36 2 1 -1 12 -7 23 -9 16 -18 19 -44 16 -28 -4 -29
-4 -7 4 40 14 46 13 59 -16z m-109 -3 c-14 -4 -36 -8 -50 -8 -22 0 -22 1 5 8
17 4 39 8 50 8 16 0 15 -2 -5 -8z m3920 0 c0 -5 -2 -10 -4 -10 -3 0 -8 5 -11
10 -3 6 -1 10 4 10 6 0 11 -4 11 -10z m75 -18 c-3 -3 -11 0 -18 7 -9 10 -8 11
6 5 10 -3 15 -9 12 -12z m-4130 -7 c-66 -15 -209 -64 -291 -100 -51 -23 -52
-24 -112 -147 -42 -85 -64 -144 -71 -188 l-10 -65 4 65 c4 55 15 85 73 199
l67 135 50 18 c137 52 284 97 315 97 28 -1 23 -3 -25 -14z m4523 8 c-10 -2
-26 -2 -35 0 -10 3 -2 5 17 5 19 0 27 -2 18 -5z m-4180 -85 c16 -16 15 -43 -3
-58 -12 -10 -20 -9 -40 4 -29 19 -32 41 -7 55 23 14 36 13 50 -1z m3647 -18
c3 -6 -1 -7 -9 -4 -18 7 -21 14 -7 14 6 0 13 -4 16 -10z m1609 -55 c-4 -8 -9
-13 -13 -10 -5 2 -31 -5 -60 -15 -28 -11 -57 -20 -64 -19 -9 0 34 18 140 58 1
1 0 -6 -3 -14z m-1455 -17 c-1 -17 -2 -19 -6 -5 -2 9 -8 17 -13 17 -13 0 -32
-39 -25 -50 8 -13 32 -13 38 0 3 6 4 5 3 -2 -4 -20 -43 -21 -50 -2 -8 20 19
64 39 64 9 0 15 -9 14 -22z m-3179 -38 c18 -12 2 -12 -25 0 -13 6 -15 9 -5 9
8 0 22 -4 30 -9z m4465 -4 c-11 -8 -23 -12 -27 -10 -4 3 -21 -2 -38 -11 -16
-8 -30 -12 -30 -7 0 5 21 16 48 25 60 20 71 21 47 3z m-5030 -52 c-82 -53
-127 -94 -122 -109 3 -5 -8 -32 -22 -60 -14 -27 -31 -63 -38 -80 -6 -16 -12
-22 -12 -13 -1 9 15 46 34 82 30 56 32 66 17 66 -12 1 -4 12 27 41 51 46 158
119 175 119 6 0 -20 -21 -59 -46z m678 4 c127 -66 256 -203 321 -338 17 -37
16 -35 -53 69 -93 141 -146 191 -293 271 -97 53 -78 51 25 -2z m-573 8 c0 -3
-4 -8 -10 -11 -5 -3 -10 -1 -10 4 0 6 5 11 10 11 6 0 10 -2 10 -4z m4810 -18
c0 -4 6 -8 14 -8 8 0 18 -4 21 -10 4 -7 -2 -7 -19 0 -21 8 -28 6 -41 -13 -8
-12 -15 -30 -15 -39 0 -17 -47 -45 -57 -34 -3 2 4 7 15 10 18 6 56 81 47 95
-2 4 5 7 16 7 10 0 19 -4 19 -8z m-4860 -16 c-14 -9 -52 -42 -85 -72 -49 -46
-54 -48 -25 -14 32 37 117 105 130 103 3 0 -6 -8 -20 -17z m4795 11 c-11 -3
-126 -40 -255 -83 -232 -78 -389 -124 -396 -117 -2 2 29 13 69 25 81 26 498
159 537 172 14 5 34 8 45 8 l20 0 -20 -5z m151 -41 c-10 -2 -22 0 -28 6 -6 6
0 7 19 4 21 -5 23 -7 9 -10z m-4216 -98 c40 -43 38 -42 -20 11 -87 79 -90 82
-55 57 17 -11 50 -42 75 -68z m4019 32 c-19 -19 -551 -196 -588 -196 -9 0 -26
7 -37 15 -17 13 -16 13 12 3 27 -10 49 -5 180 36 82 27 210 70 284 97 126 45
159 55 149 45z m991 -6 c0 -5 -4 -10 -10 -10 -5 0 -10 5 -10 10 0 6 5 10 10
10 6 0 10 -4 10 -10z m-5880 -34 c0 -2 -8 -10 -17 -17 -16 -13 -17 -12 -4 4
13 16 21 21 21 13z m5549 -261 c56 -104 116 -217 134 -250 l33 -60 -23 -34
c-13 -18 -23 -40 -23 -47 0 -8 -34 -24 -82 -39 -79 -25 -84 -25 -119 -10 -53
24 -80 17 -104 -28 -19 -35 -27 -39 -115 -66 -122 -37 -1490 -446 -1715 -513
-93 -27 -379 -113 -635 -190 -256 -77 -519 -156 -585 -175 l-120 -36 -39 23
-40 23 -33 -39 c-18 -21 -33 -44 -33 -49 0 -6 -156 -59 -347 -118 -192 -59
-420 -130 -508 -158 -88 -27 -259 -79 -380 -115 -237 -70 -247 -71 -293 -21
-12 12 -75 125 -142 251 l-122 228 13 43 13 42 275 87 c152 47 384 120 516
162 132 41 440 136 685 210 245 74 648 198 895 274 248 76 709 218 1025 315
316 97 716 219 887 272 281 86 315 95 337 83 14 -7 31 -10 39 -7 9 3 14 -1 13
-11 0 -9 6 -18 14 -19 10 -2 27 16 45 49 l30 52 159 48 c87 26 160 49 163 51
2 3 21 -5 43 -16 34 -19 50 -44 139 -212z m-5586 210 c-3 -9 -8 -14 -10 -11
-3 3 -2 9 2 15 9 16 15 13 8 -4z m4304 -11 c-3 -3 -12 -4 -19 -1 -8 3 -5 6 6
6 11 1 17 -2 13 -5z m-67 -18 c-20 -8 -51 -16 -70 -19 -23 -4 -15 0 20 12 62
21 104 27 50 7z m-4983 -28 c-3 -8 -6 -5 -6 6 -1 11 2 17 5 13 3 -3 4 -12 1
-19z m4828 -18 c-11 -5 -27 -9 -35 -9 -9 0 -8 4 5 9 11 5 27 9 35 9 9 0 8 -4
-5 -9z m168 -10 c-20 -12 -33 -28 -33 -40 0 -14 -7 -20 -24 -20 -12 0 -37 -5
-55 -11 -18 -6 -35 -9 -38 -6 -3 4 16 11 42 18 31 8 58 23 78 45 16 19 37 34
46 34 9 0 2 -9 -16 -20z m-4969 -30 c-6 -5 -24 21 -24 34 0 6 6 1 14 -10 8
-10 12 -21 10 -24z m343 8 c-3 -8 -6 -5 -6 6 -1 11 2 17 5 13 3 -3 4 -12 1
-19z m4393 12 c-8 -5 -24 -9 -35 -9 l-20 0 20 9 c11 5 27 9 35 9 13 1 13 0 0
-9z m-61 -14 c-2 -3 -37 -14 -78 -25 -41 -11 -71 -17 -67 -13 4 4 33 14 64 23
58 17 89 22 81 15z m-4203 -21 c-3 -8 2 -21 10 -30 9 -8 11 -15 5 -15 -14 0
-30 32 -24 48 3 6 7 12 10 12 3 0 3 -7 -1 -15z m48 -2 c4 -9 1 -21 -5 -27 -9
-8 -10 -7 -4 3 5 9 1 19 -10 28 -16 11 -16 13 -3 13 9 0 19 -8 22 -17z m4211
-59 c-44 -13 -89 -23 -100 -21 -11 1 16 12 60 23 110 29 138 28 40 -2z m-4388
-16 c-3 -8 -6 -5 -6 6 -1 11 2 17 5 13 3 -3 4 -12 1 -19z m3590 16 c-3 -3 -12
-4 -19 -1 -8 3 -5 6 6 6 11 1 17 -2 13 -5z m2832 -48 c18 -19 21 -28 12 -43
-22 -42 -36 -44 -65 -14 -28 29 -28 30 -10 55 24 32 35 32 63 2z m-2206 7 c-7
-2 -19 -2 -25 0 -7 3 -2 5 12 5 14 0 19 -2 13 -5z m-3338 -29 c139 -47 242
-163 244 -275 2 -60 -14 -70 -121 -82 -79 -8 -107 -7 -171 7 -99 22 -180 64
-241 123 -52 51 -100 140 -90 167 8 22 69 57 124 73 57 16 189 10 255 -13z
m3248 9 c-7 -2 -19 -2 -25 0 -7 3 -2 5 12 5 14 0 19 -2 13 -5z m-2556 -45 c-3
-7 -5 -2 -5 12 0 14 2 19 5 13 2 -7 2 -19 0 -25z m-1346 -20 c15 -28 5 -21
-21 15 -15 20 -17 27 -6 18 9 -8 22 -23 27 -33z m9 -77 c-24 -60 -103 -60
-167 -1 -44 40 -42 50 2 12 72 -64 148 -59 162 11 4 17 8 26 11 19 2 -7 -1
-26 -8 -41z m-230 -52 c0 -11 -4 -17 -10 -14 -5 3 -10 15 -10 26 0 11 5 17 10
14 6 -3 10 -15 10 -26z m421 -36 c13 -16 12 -17 -3 -4 -10 7 -18 15 -18 17 0
8 8 3 21 -13z m1092 2 c-3 -9 -8 -14 -10 -11 -3 3 -2 9 2 15 9 16 15 13 8 -4z
m687 -30 c0 -8 -4 -17 -10 -20 -6 -4 -10 5 -10 20 0 15 4 24 10 20 6 -3 10
-12 10 -20z m-2117 -21 c-7 -18 -10 -18 -22 5 -9 16 -8 18 8 14 12 -3 17 -11
14 -19z m437 -61 c0 -8 -9 0 -50 45 l-45 47 48 -45 c26 -24 47 -45 47 -47z
m973 72 c-3 -9 -8 -14 -10 -11 -3 3 -2 9 2 15 9 16 15 13 8 -4z m752 -62 l18
-28 -21 19 c-12 11 -22 23 -22 28 0 14 7 9 25 -19z m-785 13 c0 -2 -8 -10 -17
-17 -16 -13 -17 -12 -4 4 13 16 21 21 21 13z m-775 -124 c-3 -3 -11 0 -18 7
-9 10 -8 11 6 5 10 -3 15 -9 12 -12z m6265 -76 c14 -12 43 -56 64 -97 38 -71
222 -398 273 -486 14 -24 23 -43 20 -43 -6 0 -133 219 -252 435 -49 88 -96
168 -104 178 -21 25 -37 22 -271 -52 -209 -66 -568 -177 -845 -261 -93 -28
-177 -55 -187 -60 -11 -6 -20 -5 -28 5 -10 12 -9 16 1 19 8 3 75 22 149 44
156 46 577 174 895 272 121 37 229 68 240 69 11 0 31 -10 45 -23z m-4929 -77
c-7 -17 -10 -19 -10 -7 -1 16 -4 16 -42 3 -61 -22 -72 -17 -15 5 27 11 54 24
60 30 15 15 19 -2 7 -31z m-411 -9 c-34 -11 -60 -11 -35 0 11 5 29 8 40 8 16
0 15 -2 -5 -8z m280 -19 c-72 -40 -993 -321 -1007 -308 -2 2 110 36 249 76
139 39 366 109 503 156 236 79 290 95 255 76z m105 -44 c-23 -16 -55 -28 -55
-22 0 6 53 34 65 35 5 0 1 -6 -10 -13z m-145 -61 c0 -6 -200 -83 -235 -91 -16
-3 26 16 95 43 129 51 140 55 140 48z m-361 -59 c-2 -1 -13 -9 -24 -17 -19
-14 -19 -14 -6 3 7 9 18 17 24 17 6 0 8 -1 6 -3z m79 -41 c13 4 13 3 -2 -6
-15 -10 -22 -8 -45 15 l-26 28 28 -21 c16 -11 36 -19 45 -16z m-733 -16 c-11
-5 -27 -9 -35 -9 -9 0 -8 4 5 9 11 5 27 9 35 9 9 0 8 -4 -5 -9z m595 -40 c-8
-5 -22 -9 -30 -9 -10 0 -8 3 5 9 27 12 43 12 25 0z m4377 -315 c157 -273 186
-325 179 -325 -2 0 -36 57 -77 128 -40 70 -109 190 -154 267 -89 152 -123 216
-107 200 5 -5 77 -127 159 -270z m-4572 255 c-11 -5 -27 -9 -35 -9 -9 0 -8 4
5 9 11 5 27 9 35 9 9 0 8 -4 -5 -9z m-405 -10 c-8 -5 -19 -10 -25 -10 -5 0 -3
5 5 10 8 5 20 10 25 10 6 0 3 -5 -5 -10z m347 -6 c-3 -3 -12 -4 -19 -1 -8 3
-5 6 6 6 11 1 17 -2 13 -5z m-417 -19 c0 -8 -39 -21 -80 -29 -29 -5 -26 -2 15
13 55 21 65 24 65 16z m335 -5 c-11 -5 -27 -9 -35 -9 -9 0 -8 4 5 9 11 5 27 9
35 9 9 0 8 -4 -5 -9z m-270 -31 c11 -9 31 -19 45 -22 l25 -4 -26 -2 c-15 0
-34 8 -44 19 -10 11 -26 20 -37 20 -10 0 -27 -9 -38 -20 -27 -27 -26 -12 1 16
23 24 41 23 74 -7z m214 17 c-2 -2 -17 -6 -34 -10 -22 -5 -26 -4 -15 4 14 9
59 15 49 6z m-94 -26 c-11 -5 -27 -9 -35 -9 -9 0 -8 4 5 9 11 5 27 9 35 9 9 0
8 -4 -5 -9z m6033 -30 c38 -27 80 -86 69 -96 -2 -3 -10 9 -17 26 -13 33 -58
72 -100 89 -15 6 -19 10 -9 10 9 1 35 -12 57 -29z m-238 16 c0 -2 -7 -7 -16
-10 -8 -3 -12 -2 -9 4 6 10 25 14 25 6z m47 -7 c-10 -6 -32 -32 -48 -57 -16
-25 -29 -42 -29 -38 0 25 64 106 84 106 6 0 3 -5 -7 -11z m-6157 -14 c4 3 7
-3 6 -13 -1 -12 5 -16 19 -14 16 2 17 1 5 -7 -19 -13 -43 -14 -35 -2 3 5 1 12
-5 16 -5 3 -10 14 -9 23 0 11 2 12 6 4 2 -6 8 -10 13 -7z m100 -5 c0 -5 -5
-10 -11 -10 -5 0 -7 5 -4 10 3 6 8 10 11 10 2 0 4 -4 4 -10z m6210 -9 c34 -17
80 -73 80 -95 0 -6 -9 4 -20 22 -22 37 -88 71 -134 72 -41 0 -66 -26 -66 -69
0 -27 -3 -32 -10 -21 -16 25 -11 69 10 90 26 26 93 27 140 1z m-233 -103 c-3
-8 -6 -5 -6 6 -1 11 2 17 5 13 3 -3 4 -12 1 -19z m632 -14 c12 -19 21 -43 20
-52 -1 -13 -2 -13 -8 3 -3 11 -14 35 -24 53 -24 43 -14 41 12 -4z m-282 -26
c-2 -13 -4 -5 -4 17 -1 22 1 32 4 23 2 -10 2 -28 0 -40z m-305 -99 c27 -27 29
-30 8 -18 -28 17 -70 93 -69 124 0 11 7 -1 15 -26 7 -26 29 -61 46 -80z
m-1859 56 c17 -35 17 -36 -9 -45 -35 -14 -53 -12 -71 6 -10 9 -29 14 -52 12
-33 -3 -36 -5 -35 -34 l2 -32 -142 -41 c-77 -23 -199 -59 -271 -80 -756 -226
-1318 -394 -1446 -431 -53 -15 -106 -31 -117 -34 -15 -5 -25 1 -42 29 -12 20
-20 38 -18 40 2 3 145 45 317 95 172 49 397 115 499 146 325 97 583 174 702
211 63 19 212 64 330 99 118 35 235 70 260 78 67 21 75 19 93 -19z m-4654 -59
c10 -12 9 -21 -4 -45 l-16 -31 -29 22 c-17 12 -30 22 -30 23 0 1 7 16 16 33
16 33 34 33 63 -2z m7092 -3 c-12 -20 -14 -14 -5 12 4 9 9 14 11 11 3 -2 0
-13 -6 -23z m-958 -53 c37 -25 84 -87 73 -97 -3 -3 -6 -1 -6 5 0 15 -58 80
-84 94 -11 6 -45 15 -76 19 l-55 8 57 -3 c40 -2 67 -9 91 -26z m942 8 c-12
-31 -157 -149 -182 -148 -4 1 6 9 23 18 45 25 143 113 150 135 3 10 8 17 10
14 3 -2 2 -11 -1 -19z m-1126 -11 c-19 -12 -42 -38 -51 -57 -12 -23 -18 -28
-18 -16 0 21 71 96 90 96 7 0 -2 -10 -21 -23z m666 13 c13 -6 15 -9 5 -9 -8 0
-22 4 -30 9 -18 12 -2 12 25 0z m-6825 -40 c0 -5 -2 -10 -4 -10 -3 0 -8 5 -11
10 -3 6 -1 10 4 10 6 0 11 -4 11 -10z m6415 -175 c-9 -17 -26 -37 -38 -44 -16
-10 -13 -4 11 23 24 28 32 47 34 79 1 41 1 41 5 7 3 -21 -2 -47 -12 -65z
m-425 5 c11 -22 18 -40 15 -40 -2 0 -14 18 -25 40 -11 22 -18 40 -15 40 2 0
14 -18 25 -40z m173 -36 c18 -14 22 -21 11 -15 -22 11 -84 77 -84 89 0 4 10
-5 21 -20 11 -15 35 -39 52 -54z m787 46 c-8 -5 -22 -9 -30 -9 -10 0 -8 3 5 9
27 12 43 12 25 0z m-173 -56 c-3 -3 -12 -4 -19 -1 -8 3 -5 6 6 6 11 1 17 -2
13 -5z m-697 -119 c29 -55 48 -95 42 -90 -6 6 -34 55 -62 110 -29 55 -48 96
-42 90 5 -5 33 -55 62 -110z m167 89 c-3 -3 -12 -4 -19 -1 -8 3 -5 6 6 6 11 1
17 -2 13 -5z m430 0 c-3 -3 -12 -4 -19 -1 -8 3 -5 6 6 6 11 1 17 -2 13 -5z
m-390 -10 c-3 -3 -12 -4 -19 -1 -8 3 -5 6 6 6 11 1 17 -2 13 -5z m278 -24
c-27 -12 -43 -12 -25 0 8 5 22 9 30 9 10 0 8 -3 -5 -9z m-1023 -40 c-7 -7
-160 -53 -177 -54 -5 -1 -10 5 -10 13 0 20 155 69 177 56 10 -5 14 -12 10 -15z
m695 -26 c-3 -3 -12 -4 -19 -1 -8 3 -5 6 6 6 11 1 17 -2 13 -5z m-1289 -135
c2 -10 -29 -23 -110 -46 -62 -17 -116 -29 -120 -27 -25 15 3 32 100 60 115 34
126 35 130 13z m-3304 -202 c-2 -7 -39 -23 -82 -36 -153 -44 -1078 -333 -1110
-347 -32 -13 -33 -13 -26 9 3 12 7 22 8 23 0 0 183 55 406 122 223 68 491 149
595 182 208 64 217 66 209 47z m2510 -22 c4 -11 -14 -20 -77 -39 -153 -47
-176 -51 -189 -38 -6 6 -10 14 -7 16 6 6 232 74 250 75 9 0 19 -6 23 -14z
m-661 -199 c4 -10 -15 -19 -66 -34 -138 -40 -159 -44 -170 -33 -14 14 -17 13
98 48 116 36 131 38 138 19z m-654 -201 c-2 -12 -177 -66 -203 -63 -40 6 -25
25 30 37 32 7 73 19 93 27 40 15 83 14 80 -1z m-2327 -140 c17 -33 70 -125
118 -205 48 -80 120 -201 159 -270 40 -69 80 -131 89 -137 9 -8 11 -13 4 -13
-14 0 -25 16 -205 321 -149 251 -247 428 -247 445 0 11 40 -57 82 -141z m1256
18 c-10 -2 -26 -2 -35 0 -10 3 -2 5 17 5 19 0 27 -2 18 -5z m-100 -33 c-30
-20 -52 -44 -62 -68 -8 -20 -15 -31 -15 -24 -2 37 77 122 113 122 5 0 -11 -14
-36 -30z m288 -72 c8 -15 14 -31 14 -35 -1 -4 -8 6 -17 22 -8 17 -25 41 -37
55 l-21 25 24 -20 c12 -11 29 -32 37 -47z m14 32 c6 -11 8 -20 6 -20 -3 0 -10
9 -16 20 -6 11 -8 20 -6 20 3 0 10 -9 16 -20z m-921 -44 c-2 -2 -17 -6 -34
-10 -22 -5 -26 -4 -15 4 14 9 59 15 49 6z m54 -3 c-7 -2 -21 -2 -30 0 -10 3
-4 5 12 5 17 0 24 -2 18 -5z m-123 -16 c0 -2 -15 -13 -32 -26 l-33 -22 28 25
c26 24 37 31 37 23z m202 -24 c29 -32 68 -93 68 -108 0 -5 -13 13 -30 41 -16
29 -42 61 -57 73 -15 11 -23 21 -17 21 5 0 22 -12 36 -27z m-121 -4 c-25 -5
-49 -13 -55 -19 -5 -5 -15 -10 -20 -10 -6 1 0 10 13 20 15 14 37 20 65 19 l41
-1 -44 -9z m537 -78 c17 -37 93 -91 128 -91 13 0 25 -4 28 -9 11 -17 -65 7
-104 33 -45 30 -66 58 -74 101 -4 17 -3 23 0 15 4 -8 13 -30 22 -49z m-692 7
c-6 -23 -12 -35 -14 -26 -3 14 14 68 21 68 2 0 -1 -19 -7 -42z m1034 -41 c0
-2 -10 -12 -22 -23 l-23 -19 19 23 c18 21 26 27 26 19z m-1053 -39 c-3 -8 -6
-5 -6 6 -1 11 2 17 5 13 3 -3 4 -12 1 -19z m998 -8 c-3 -5 -12 -10 -18 -10 -7
0 -6 4 3 10 19 12 23 12 15 0z m-982 -30 c3 -11 1 -18 -4 -14 -5 3 -9 12 -9
20 0 20 7 17 13 -6z m940 13 c-7 -2 -19 -2 -25 0 -7 3 -2 5 12 5 14 0 19 -2
13 -5z m-858 -107 c6 -4 1 -4 -10 2 -11 6 -31 23 -45 39 l-25 28 35 -30 c19
-16 40 -34 45 -39z m40 -16 c3 -6 -1 -7 -9 -4 -18 7 -21 14 -7 14 6 0 13 -4
16 -10z m-95 -190 c8 -5 11 -10 5 -10 -5 0 -17 5 -25 10 -8 5 -10 10 -5 10 6
0 17 -5 25 -10z m287 -6 c-3 -3 -12 -4 -19 -1 -8 3 -5 6 6 6 11 1 17 -2 13 -5z
m-237 -14 c8 -5 11 -10 5 -10 -5 0 -17 5 -25 10 -8 5 -10 10 -5 10 6 0 17 -5
25 -10z m127 -16 c-3 -3 -12 -4 -19 -1 -8 3 -5 6 6 6 11 1 17 -2 13 -5z"/>
<path d="M6782 7772 c-18 -12 -42 -60 -42 -82 0 -10 12 -28 27 -40 27 -21 30
-21 108 -8 6 1 11 20 13 43 2 32 -2 46 -20 62 -27 25 -68 37 -86 25z"/>
<path d="M6930 7761 c0 -6 4 -13 10 -16 6 -3 7 1 4 9 -7 18 -14 21 -14 7z"/>
<path d="M6960 7710 c6 -11 13 -20 16 -20 2 0 0 9 -6 20 -6 11 -13 20 -16 20
-2 0 0 -9 6 -20z"/>
<path d="M6425 7639 c-4 -6 -5 -12 -2 -15 2 -3 7 2 10 11 7 17 1 20 -8 4z"/>
<path d="M6750 7636 c0 -2 8 -10 18 -17 15 -13 16 -12 3 4 -13 16 -21 21 -21
13z"/>
<path d="M6440 7613 c0 -10 4 -24 9 -32 6 -9 9 -5 9 13 0 15 -4 29 -9 32 -5 3
-9 -3 -9 -13z"/>
<path d="M6818 7603 c7 -3 16 -2 19 1 4 3 -2 6 -13 5 -11 0 -14 -3 -6 -6z"/>
<path d="M7045 7570 c9 -16 18 -30 21 -30 2 0 -2 14 -11 30 -9 17 -18 30 -21
30 -2 0 2 -13 11 -30z"/>
<path d="M6593 7559 c-28 -10 -63 -66 -63 -100 0 -35 40 -93 67 -97 11 -2 29
-12 39 -23 21 -23 64 -25 107 -3 87 44 90 138 7 208 -26 21 -41 26 -83 25 -29
-1 -62 -5 -74 -10z m126 -117 c5 -9 11 -33 13 -52 3 -31 0 -35 -22 -37 -14 -1
-18 0 -7 3 19 6 22 30 7 69 -7 20 -16 26 -33 23 -18 -2 -22 -9 -20 -32 2 -29
2 -29 -13 -7 -23 32 -11 51 30 51 23 0 38 -6 45 -18z"/>
<path d="M6800 7511 c0 -5 8 -15 18 -22 15 -12 16 -12 5 2 -7 9 -10 19 -6 22
3 4 1 7 -5 7 -7 0 -12 -4 -12 -9z"/>
<path d="M6315 7445 c-22 -7 -161 -52 -310 -99 -365 -115 -376 -118 -371 -124
4 -3 156 43 496 152 58 19 132 42 165 52 33 9 64 21 70 26 12 11 -1 9 -50 -7z"/>
<path d="M6805 7370 c-3 -5 -1 -10 4 -10 6 0 11 5 11 10 0 6 -2 10 -4 10 -3 0
-8 -4 -11 -10z"/>
<path d="M7140 7323 c0 -6 8 -17 18 -24 16 -13 16 -13 2 6 -8 11 -16 22 -17
24 -2 2 -3 0 -3 -6z"/>
<path d="M5172 7082 c-273 -88 -417 -138 -405 -143 10 -3 20 -3 23 1 10 14
160 62 175 56 9 -3 14 -2 11 2 -6 9 157 63 197 65 14 1 23 6 20 11 -3 4 5 5
17 1 13 -4 25 -3 29 3 10 17 218 83 237 75 11 -4 15 -3 11 4 -8 13 39 27 55
17 7 -4 8 -3 4 4 -4 7 9 15 34 22 38 10 54 21 28 19 -7 0 -204 -62 -436 -137z"/>
<path d="M6590 7160 c8 -5 24 -10 34 -10 26 0 18 6 -19 14 -22 5 -26 4 -15 -4z"/>
<path d="M7274 7092 c0 -10 6 -19 13 -19 8 0 9 6 2 19 -5 10 -11 18 -12 18 -2
0 -3 -8 -3 -18z"/>
<path d="M6760 7086 c0 -2 8 -10 18 -17 15 -13 16 -12 3 4 -13 16 -21 21 -21
13z"/>
<path d="M7314 7037 c9 -15 14 -33 10 -39 -4 -7 -3 -8 4 -4 6 4 18 -6 27 -24
8 -16 18 -30 21 -30 7 0 -33 70 -58 100 l-20 25 16 -28z"/>
<path d="M6820 7042 c0 -5 12 -19 28 -33 15 -13 24 -20 20 -15 -4 5 -2 16 4
25 7 9 8 13 3 8 -4 -4 -19 0 -32 8 -13 9 -23 12 -23 7z"/>
<path d="M6895 6970 c36 -45 65 -89 65 -100 0 -6 7 -13 15 -16 8 -4 12 -10 9
-15 -3 -5 -1 -9 4 -9 6 0 9 11 8 24 -1 16 -6 22 -15 18 -10 -4 -13 0 -9 16 4
12 2 20 -3 16 -5 -3 -14 6 -21 20 -6 14 -15 26 -20 26 -5 0 -6 6 -2 13 4 6 3
9 -1 4 -5 -4 -18 1 -29 10 l-21 18 20 -25z"/>
<path d="M7389 6915 c17 -33 31 -51 31 -40 0 6 -10 21 -21 35 -13 17 -17 18
-10 5z"/>
<path d="M7425 6844 c4 -17 -1 -24 -22 -32 -45 -17 -68 -22 -107 -24 -20 -1
-36 -5 -36 -10 0 -5 -12 -6 -27 -3 -21 4 -23 3 -9 -3 18 -8 18 -9 2 -15 -10
-4 -28 -7 -41 -7 -13 0 -27 -5 -30 -11 -4 -6 -12 -8 -19 -6 -7 3 -23 -1 -36
-8 -30 -16 -49 -9 -61 23 -5 14 -12 22 -15 19 -9 -8 25 -67 39 -67 32 0 387
110 387 120 0 3 -7 15 -16 26 -15 19 -15 19 -9 -2z"/>
<path d="M3985 6702 c-11 -2 -231 -72 -490 -154 -258 -83 -508 -162 -554 -176
-46 -14 -79 -28 -73 -30 6 -2 67 15 136 38 69 23 131 38 137 34 7 -4 9 -3 6 3
-4 6 2 13 13 16 11 3 22 1 25 -4 3 -4 12 -6 20 -3 8 4 13 10 10 14 -6 9 104
42 116 34 5 -3 9 -1 9 4 0 13 76 36 90 27 9 -6 11 -4 5 5 -6 10 -4 12 8 7 9
-3 17 -2 19 2 2 4 71 29 153 55 83 26 191 61 240 76 114 37 161 45 169 31 4
-6 17 -16 29 -22 12 -6 18 -7 12 -3 -43 39 -63 50 -80 46z"/>
<path d="M2745 6310 c-49 -16 -344 -110 -655 -209 -311 -99 -639 -204 -730
-234 -91 -29 -202 -64 -247 -78 -46 -13 -83 -28 -83 -33 0 -4 8 -5 18 -1 36
14 138 38 167 39 18 1 29 6 28 14 -2 6 6 12 18 12 11 0 18 -4 15 -9 -3 -4 7
-6 22 -3 l27 6 -25 6 c-25 6 -25 6 7 17 27 10 36 9 57 -8 34 -27 44 -24 54 14
6 21 15 32 25 31 9 -1 15 2 12 6 -4 7 82 34 110 35 6 0 12 3 15 6 11 15 355
119 373 113 12 -4 17 -2 13 4 -6 10 47 28 72 23 6 -1 12 3 12 10 0 6 8 9 20 6
11 -3 20 -1 20 5 0 6 7 7 16 4 10 -4 13 -2 8 6 -5 8 0 9 17 5 14 -4 30 -1 39
7 22 21 138 56 157 49 11 -4 14 -2 9 5 -4 7 4 14 21 18 15 3 43 10 60 16 18 5
38 6 44 2 7 -4 9 -3 5 4 -8 13 99 46 116 36 7 -4 8 -3 4 4 -4 7 4 14 21 18 15
3 40 10 55 16 15 5 33 7 40 2 7 -4 10 -3 5 1 -4 5 25 19 64 31 65 21 96 35 73
34 -5 -1 -49 -14 -99 -30z"/>
<path d="M2545 6090 c-3 -6 1 -7 9 -4 18 7 21 14 7 14 -6 0 -13 -4 -16 -10z"/>
<path d="M2328 6053 c7 -3 16 -2 19 1 4 3 -2 6 -13 5 -11 0 -14 -3 -6 -6z"/>
<path d="M717 5938 c-49 -16 -86 -32 -84 -35 3 -2 49 10 104 27 74 24 102 29
115 21 14 -9 16 -8 12 4 -9 22 -48 17 -147 -17z"/>
<path d="M590 5890 c-8 -5 -10 -10 -5 -10 6 0 17 5 25 10 8 5 11 10 5 10 -5 0
-17 -5 -25 -10z"/>
<path d="M907 5859 c4 -13 8 -18 11 -10 2 7 -1 18 -6 23 -8 8 -9 4 -5 -13z"/>
<path d="M499 5833 c-13 -16 -12 -17 4 -4 16 13 21 21 13 21 -2 0 -10 -8 -17
-17z"/>
<path d="M550 5832 c0 -7 0 -15 -1 -19 0 -4 9 -11 21 -15 18 -7 21 -5 16 8 -5
12 -2 15 9 10 10 -3 13 -2 10 5 -4 6 -13 8 -20 5 -7 -2 -18 1 -24 7 -8 8 -11
8 -11 -1z"/>
<path d="M1623 5815 c0 -8 4 -15 9 -15 4 0 8 4 8 9 0 6 -4 12 -8 15 -5 3 -9
-1 -9 -9z"/>
<path d="M1658 5813 c7 -3 16 -2 19 1 4 3 -2 6 -13 5 -11 0 -14 -3 -6 -6z"/>
<path d="M505 5792 c-65 -13 -142 -175 -85 -179 23 -2 25 7 8 26 -11 11 -10
13 5 8 18 -7 24 8 7 18 -5 3 -10 16 -10 28 l1 22 17 -20 c50 -60 108 -71 147
-29 29 32 32 64 8 93 -20 23 -67 39 -98 33z"/>
<path d="M809 5771 c6 -4 -3 -12 -24 -20 -50 -18 -75 -54 -75 -109 0 -41 5
-50 45 -88 68 -65 149 -69 205 -9 13 14 29 21 39 18 11 -3 12 -2 4 4 -9 7 -10
17 -2 44 10 32 8 40 -15 77 -28 45 -65 74 -99 78 -12 1 -22 3 -22 4 0 1 -15 3
-34 5 -19 1 -29 0 -22 -4z m84 -131 c5 -4 15 -25 22 -46 15 -44 8 -59 -30 -67
-22 -4 -26 1 -35 32 -5 20 -16 46 -25 58 -14 20 -14 23 2 32 18 10 50 6 66 -9z"/>
<path d="M838 5633 c6 -2 12 -13 12 -23 0 -34 22 -70 43 -70 16 0 17 3 8 14
-9 11 -9 15 0 18 9 3 7 13 -6 36 -14 23 -26 32 -45 31 -14 0 -19 -3 -12 -6z"/>
<path d="M993 5746 c0 -8 11 -13 24 -13 19 0 21 2 12 13 -6 8 -17 14 -24 14
-6 0 -12 -6 -12 -14z"/>
<path d="M1468 5753 c7 -3 16 -2 19 1 4 3 -2 6 -13 5 -11 0 -14 -3 -6 -6z"/>
<path d="M626 5701 c-4 -28 -16 -48 -43 -72 -21 -18 -30 -30 -20 -26 10 4 23
7 28 7 6 0 7 5 3 12 -5 8 -2 9 10 5 10 -4 15 -3 11 3 -3 6 -1 10 4 10 6 0 11
3 10 8 -3 19 14 51 25 45 6 -4 5 1 -2 10 -8 9 -11 21 -7 27 3 5 2 10 -3 10 -5
0 -12 -18 -16 -39z"/>
<path d="M1415 5729 c-4 -6 -5 -12 -2 -15 2 -3 7 2 10 11 7 17 1 20 -8 4z"/>
<path d="M660 5720 c0 -5 5 -10 11 -10 5 0 7 5 4 10 -3 6 -8 10 -11 10 -2 0
-4 -4 -4 -10z"/>
<path d="M685 5700 c-3 -5 -1 -10 4 -10 6 0 11 5 11 10 0 6 -2 10 -4 10 -3 0
-8 -4 -11 -10z"/>
<path d="M1004 5695 c5 -11 11 -28 13 -37 7 -25 22 -23 20 2 -1 12 -10 29 -21
38 -18 16 -19 16 -12 -3z"/>
<path d="M1332 5640 c-7 -11 -8 -20 -3 -20 9 0 24 30 18 36 -1 2 -8 -6 -15
-16z"/>
<path d="M468 5623 c6 -2 18 -2 25 0 6 3 1 5 -13 5 -14 0 -19 -2 -12 -5z"/>
<path d="M535 5620 c-3 -6 1 -7 9 -4 18 7 21 14 7 14 -6 0 -13 -4 -16 -10z"/>
<path d="M1013 5595 c0 -8 4 -12 9 -9 5 3 6 10 3 15 -9 13 -12 11 -12 -6z"/>
<path d="M420 5579 c18 -34 21 -36 17 -9 -2 13 -9 26 -16 28 -10 3 -10 0 -1
-19z"/>
<path d="M1296 5573 c-6 -14 -5 -15 5 -6 7 7 10 15 7 18 -3 3 -9 -2 -12 -12z"/>
<path d="M1270 5525 c-7 -9 -8 -15 -2 -15 5 0 12 7 16 15 3 8 4 15 2 15 -2 0
-9 -7 -16 -15z"/>
<path d="M979 5517 c6 -8 7 -18 3 -22 -4 -5 -1 -5 6 -1 10 6 10 11 1 22 -6 8
-14 14 -16 14 -3 0 0 -6 6 -13z"/>
<path d="M915 5500 c-16 -7 -17 -9 -3 -9 9 -1 20 4 23 9 7 11 7 11 -20 0z"/>
<path d="M496 5428 c7 -25 34 -68 41 -68 2 0 -1 9 -7 19 -5 11 -11 31 -12 45
-1 15 -8 26 -16 26 -9 0 -11 -7 -6 -22z"/>
<path d="M1201 5354 c0 -11 3 -14 6 -6 3 7 2 16 -1 19 -3 4 -6 -2 -5 -13z"/>
<path d="M540 5343 c0 -15 18 -35 23 -27 3 5 -1 15 -9 22 -8 7 -14 9 -14 5z"/>
<path d="M566 5301 c-4 -6 -2 -11 5 -11 7 0 10 -3 6 -6 -8 -8 16 -56 36 -72
11 -9 13 -6 13 18 0 16 -3 27 -8 24 -5 -3 -6 -10 -3 -15 4 -5 1 -9 -4 -9 -6 0
-11 8 -11 18 -1 27 -26 67 -34 53z"/>
<path d="M1181 5264 c0 -11 3 -14 6 -6 3 7 2 16 -1 19 -3 4 -6 -2 -5 -13z"/>
<path d="M633 5194 c-12 -5 18 -68 142 -296 41 -75 75 -126 82 -123 7 2 10 -2
7 -9 -4 -12 36 -97 56 -119 8 -9 310 83 310 94 0 3 -14 6 -30 7 -17 0 -28 -4
-25 -9 10 -15 -8 -10 -34 10 l-24 18 49 -4 49 -3 -35 17 c-27 14 -35 25 -36
46 -1 17 4 27 13 27 8 0 11 5 8 10 -3 6 0 10 7 11 7 0 3 4 -8 9 -12 5 -41 6
-65 3 -24 -3 -52 -5 -61 -5 -10 1 -18 -3 -18 -7 0 -5 -26 -12 -57 -16 -54 -7
-99 -26 -88 -37 3 -2 -1 -5 -9 -5 -11 0 -9 8 7 29 13 18 30 28 46 28 29 0 24
8 -10 14 -13 2 -23 9 -21 15 7 31 6 36 -4 34 -7 -1 -14 8 -16 22 -4 17 0 25
14 28 10 3 18 12 18 21 0 18 -15 21 -25 6 -3 -5 -18 -10 -32 -10 -25 0 -25 1
-9 19 16 17 15 18 -14 17 -17 -1 -34 -7 -39 -14 -4 -8 -15 -10 -26 -6 -14 6
-16 4 -10 -6 5 -8 4 -11 -2 -7 -6 4 -8 18 -5 33 3 16 7 21 12 14 5 -9 9 -9 14
-1 4 6 28 11 54 11 28 0 42 4 37 9 -12 12 -66 17 -80 9 -6 -4 -17 7 -24 23 -7
16 -19 29 -27 29 -9 0 -12 -4 -9 -10 3 -5 1 -10 -4 -10 -6 0 -11 5 -11 11 0 5
-6 7 -12 3 -10 -6 -10 -4 0 8 11 14 10 16 -6 11 -11 -2 -23 0 -26 6 -5 7 0 9
11 6 10 -3 8 0 -5 6 -13 7 -21 18 -18 26 3 7 4 13 3 12 -1 0 -7 -3 -14 -5z
m87 -109 c0 -2 -6 -5 -13 -8 -8 -3 -14 1 -14 8 0 7 6 11 14 8 7 -3 13 -6 13
-8z m74 -133 c3 -5 -1 -9 -9 -9 -8 0 -15 4 -15 9 0 4 4 8 9 8 6 0 12 -4 15 -8z
m333 -124 c-3 -8 -6 -5 -6 6 -1 11 2 17 5 13 3 -3 4 -12 1 -19z m-142 -88 c3
-5 -1 -10 -10 -10 -9 0 -13 5 -10 10 3 6 8 10 10 10 2 0 7 -4 10 -10z m-75
-21 c0 -5 -4 -9 -8 -9 -5 0 -9 7 -9 15 0 8 4 12 9 9 4 -3 8 -9 8 -15z m227 15
c-3 -3 -12 -4 -19 -1 -8 3 -5 6 6 6 11 1 17 -2 13 -5z m-91 -16 c4 -7 3 -8 -5
-4 -6 4 -20 2 -29 -6 -15 -12 -16 -11 -3 5 16 20 27 22 37 5z"/>
<path d="M710 5150 c0 -5 5 -10 11 -10 5 0 7 5 4 10 -3 6 -8 10 -11 10 -2 0
-4 -4 -4 -10z"/>
<path d="M1171 5144 c0 -11 3 -14 6 -6 3 7 2 16 -1 19 -3 4 -6 -2 -5 -13z"/>
<path d="M1173 5074 c0 -23 1 -24 9 -10 7 12 7 21 0 28 -6 6 -9 0 -9 -18z"/>
<path d="M923 5023 c9 -2 23 -2 30 0 6 3 -1 5 -18 5 -16 0 -22 -2 -12 -5z"/>
<path d="M1190 5001 c0 -6 4 -13 10 -16 6 -3 7 1 4 9 -7 18 -14 21 -14 7z"/>
<path d="M1215 4950 c4 -14 14 -32 22 -40 12 -12 11 -7 -2 20 -22 45 -29 52
-20 20z"/>
<path d="M910 4910 c-12 -8 -10 -10 8 -10 13 0 20 4 17 10 -7 12 -6 12 -25 0z"/>
<path d="M1250 4885 c0 -13 24 -55 32 -55 5 0 2 14 -7 30 -14 27 -25 38 -25
25z"/>
<path d="M1246 4837 c3 -10 9 -15 12 -12 3 3 0 11 -7 18 -10 9 -11 8 -5 -6z"/>
<path d="M1290 4805 c0 -8 4 -15 10 -15 5 0 7 7 4 15 -4 8 -8 15 -10 15 -2 0
-4 -7 -4 -15z"/>
<path d="M1249 4788 c-9 -33 -4 -44 18 -40 13 2 23 9 23 14 0 6 -7 7 -16 4 -8
-3 -12 -2 -9 3 3 5 1 12 -5 16 -5 3 -10 5 -11 3z"/>
<path d="M5095 6647 c-21 -32 -39 -87 -31 -95 4 -3 11 -1 15 6 4 7 12 12 17
11 29 -5 46 5 61 36 13 28 14 37 3 50 -18 22 -47 19 -65 -8z"/>
<path d="M3950 5771 c0 -6 8 -7 17 -4 12 5 15 2 10 -10 -3 -9 -2 -17 4 -17 6
0 9 8 7 17 -3 19 -38 31 -38 14z"/>
<path d="M3580 5639 c0 -5 5 -7 10 -4 6 3 10 8 10 11 0 2 -4 4 -10 4 -5 0 -10
-5 -10 -11z"/>
<path d="M2177 5803 c-14 -13 -7 -25 8 -13 10 9 15 9 15 1 0 -11 -13 -15 -37
-12 -21 3 -15 -17 8 -29 11 -7 32 -9 46 -6 19 5 24 12 21 33 -2 20 -9 27 -29
30 -14 2 -29 0 -32 -4z"/>
<path d="M2035 5644 c-13 -14 -14 -19 -3 -25 36 -23 66 4 34 30 -11 9 -18 8
-31 -5z"/>
<path d="M7338 4985 c-23 -13 -26 -19 -19 -43 12 -39 47 -106 63 -120 18 -14
68 -2 82 20 20 32 -46 158 -82 158 -9 -1 -29 -7 -44 -15z m67 -61 c18 -42 19
-54 5 -54 -11 0 -40 53 -40 75 0 27 19 16 35 -21z"/>
<path d="M6695 4905 c-77 -23 -223 -68 -324 -99 -101 -30 -186 -58 -188 -60
-3 -3 4 -17 14 -33 11 -15 52 -88 92 -160 40 -73 76 -133 80 -133 4 0 13 6 19
12 10 10 17 10 33 0 11 -7 24 -10 29 -7 6 4 13 0 16 -9 14 -35 64 -24 64 15 0
15 30 28 158 68 86 28 202 62 257 76 54 14 105 31 112 37 17 13 17 28 1 28 -7
0 -51 69 -98 153 -62 110 -91 153 -105 154 -11 1 -83 -18 -160 -42z"/>
<path d="M7188 4939 c-27 -15 -22 -39 8 -39 21 0 29 -9 48 -53 30 -66 46 -81
70 -64 16 11 14 18 -19 90 -32 69 -39 77 -63 77 -15 0 -35 -5 -44 -11z"/>
<path d="M7476 4712 c-3 -6 -1 -14 5 -17 15 -10 25 3 12 16 -7 7 -13 7 -17 1z"/>
<path d="M5695 4560 c-116 -31 -136 -74 -89 -190 34 -85 49 -105 90 -125 33
-15 38 -15 118 11 65 21 87 33 100 55 23 39 21 56 -23 146 -56 116 -87 132
-196 103z m99 -90 c-1 -14 -5 -36 -9 -49 -7 -21 -6 -22 12 -12 16 8 24 7 37
-8 30 -33 19 -45 -51 -64 -36 -9 -67 -16 -67 -15 -39 81 -58 129 -53 134 3 3
27 -5 53 -20 25 -14 48 -26 51 -26 2 0 -4 13 -13 29 -15 25 -15 32 -4 46 19
23 45 14 44 -15z"/>
<path d="M7110 4550 c0 -5 5 -10 10 -10 6 0 10 5 10 10 0 6 -4 10 -10 10 -5 0
-10 -4 -10 -10z"/>
<path d="M5270 4436 c-135 -45 -150 -59 -113 -105 18 -21 19 -21 71 -6 30 9
55 15 56 13 1 -2 17 -39 35 -83 18 -44 39 -90 47 -102 17 -27 46 -30 68 -8 17
18 11 40 -41 156 l-31 66 46 14 c55 18 70 38 54 73 -16 35 -40 33 -192 -18z"/>
<path d="M4910 4317 c-46 -18 -57 -28 -67 -57 -18 -53 -15 -94 10 -153 28 -61
77 -107 116 -107 43 0 146 39 170 63 36 39 34 74 -7 157 -59 119 -112 142
-222 97z m127 -73 c3 -9 1 -25 -5 -35 -16 -26 -16 -47 0 -31 17 17 23 15 37
-15 14 -31 10 -36 -53 -57 -64 -21 -63 -21 -71 14 -4 17 -20 40 -36 52 -31 24
-38 48 -13 48 8 0 30 -11 48 -25 18 -14 38 -25 44 -25 22 0 23 21 3 46 -11 15
-18 30 -15 35 9 15 54 10 61 -7z"/>
<path d="M4736 4268 c-25 -36 -20 -64 14 -78 24 -10 33 -10 45 0 22 18 19 77
-4 90 -28 15 -38 13 -55 -12z"/>
<path d="M4538 4214 c-99 -32 -132 -59 -132 -108 0 -42 28 -85 70 -105 25 -13
37 -12 94 3 105 29 110 30 110 14 0 -10 -26 -23 -75 -37 -69 -21 -105 -41
-105 -59 0 -17 33 -52 49 -52 17 0 77 17 159 47 78 27 97 110 38 169 -41 41
-75 44 -162 14 -55 -19 -84 -20 -84 -3 0 4 36 19 80 32 95 28 107 39 88 78
-17 36 -37 38 -130 7z"/>
<path d="M3685 3980 c-87 -27 -547 -165 -633 -190 -46 -13 -72 -26 -69 -33 2
-7 16 -11 30 -9 23 2 31 -9 87 -115 34 -65 73 -133 87 -151 22 -29 28 -32 59
-26 29 5 37 2 55 -20 25 -31 40 -33 64 -6 15 16 15 22 5 35 -10 12 -10 15 2
15 7 0 51 16 96 35 108 45 279 99 383 120 92 19 109 28 109 57 0 11 -37 85
-82 164 -92 163 -85 158 -193 124z"/>
<path d="M2739 3579 c-28 -30 -32 -31 -84 -25 -53 6 -55 5 -70 -25 -20 -38 -8
-56 42 -65 l35 -7 -7 -48 c-6 -45 -5 -49 19 -60 22 -10 29 -9 45 5 11 10 25
31 31 47 12 28 15 29 56 23 37 -5 45 -3 50 12 3 11 11 29 16 41 14 28 -4 53
-38 53 -22 0 -23 2 -12 26 11 22 10 28 -7 40 -28 21 -44 17 -76 -17z"/>
<path d="M3783 3600 c-13 -5 -23 -14 -23 -20 0 -15 46 -34 64 -27 13 5 14 11
4 32 -12 27 -13 28 -45 15z"/>
<path d="M2556 3272 c-3 -5 1 -17 8 -27 16 -22 49 -13 44 12 -3 19 -42 30 -52
15z"/>
<path d="M2660 3215 c-7 -9 -8 -15 -2 -15 5 0 12 7 16 15 3 8 4 15 2 15 -2 0
-9 -7 -16 -15z"/>
<path d="M2617 3203 c-4 -3 -7 -11 -7 -17 0 -6 5 -5 12 2 6 6 9 14 7 17 -3 3
-9 2 -12 -2z"/>
<path d="M5990 3609 c0 -11 4 -18 10 -14 5 3 7 12 3 20 -7 21 -13 19 -13 -6z"/>
<path d="M6095 3620 c3 -5 8 -10 11 -10 2 0 4 5 4 10 0 6 -5 10 -11 10 -5 0
-7 -4 -4 -10z"/>
</g>
</svg>
